<svg version="1.2" xmlns="http://www.w3.org/2000/svg" viewBox="0 0 512 512" width="512" height="512">
	<path fill="#6bbe66" d="m235.9 459.2c-24.8 19.1-55.8 30.5-89.5 30.5-80.9 0-146.4-65.5-146.4-146.2 0-56.1 48.1-98.7 94.4-123.2 8.1 28.9 26.2 42.6 47.8 62.4 20.1 18.3 28.1 20.6 54.8 29.1-0.2 3.7-5.3 28.1-5.3 31.9 0 44.4 16.7 84.8 44.2 115.5z"/>
	<path fill="#ff4141" d="m511.5 343.7c-1.7 80.8-65.5 146.3-146.4 146.3-80.8 0-146.3-65.5-146.3-146.3 0-1.7 1.2-21.2 1.2-22.9 8.5 1.3 26.9 4.6 35.7 4.6 47.9 0 122.5 5.3 153.9-26 22.7-22.7 32.6-31.2 40-63.5 56.8 20.1 62.4 83.8 61.9 107.8z"/>
	<path fill="#00a1f1" d="m313.2 174.9l-73.9 27.7 152.6 79.7 70.3-163.2-64 24c-52.7-140.4-229.6-105.7-229.6-105.7 89.4 11.9 116 61.3 144.6 137.5z"/>
	<path fill="#00a1f1" d="m190.7 155.9l73.9-27.6-152.6-79.8-70.4 163.2 64.1-24c52.6 140.4 229.5 105.7 229.5 105.7-89.3-11.9-116-61.3-144.5-137.5z"/>
</svg>